<?xml version="1.0" encoding="UTF-8"?>
<svg xmlns="http://www.w3.org/2000/svg" xmlns:xlink="http://www.w3.org/1999/xlink" viewBox="0 0 512 512" width="512px" height="512px">
<g id="surface1065168">
<path style=" stroke:none;fill-rule:nonzero;fill:rgb(21.960784%,21.960784%,21.960784%);fill-opacity:1;" d="M 429.207031 388 L 169.785156 388 C 150.351562 388 133.480469 376.222656 126.785156 357.992188 C 120.078125 339.761719 125.3125 319.855469 140.023438 307.34375 L 289.359375 188 L 160 188 C 144.558594 188 132 175.441406 132 160 L 132 128 C 132 126.953125 132.433594 125.921875 133.167969 125.167969 C 133.929688 124.417969 134.929688 124 136 124 L 343.039062 124.070312 C 362.183594 124.078125 378.761719 135.710938 385.273438 153.710938 C 391.777344 171.710938 386.488281 191.257812 371.785156 203.511719 L 227.054688 324.160156 L 428 324 L 428 136 C 428 107.328125 404.671875 84 376 84 L 136 84 C 107.328125 84 84 107.328125 84 136 L 84 376 C 84 404.671875 107.328125 428 136 428 L 360 428 C 360.496094 428 360.984375 428.089844 361.441406 428.265625 L 457.238281 465.113281 Z M 429.207031 388 "/>
<path style=" stroke:none;fill-rule:nonzero;fill:rgb(0%,0%,0%);fill-opacity:1;" d="M 464 480 C 463.03125 480 462.0625 479.824219 461.128906 479.472656 L 358.519531 440 L 136 440 C 100.710938 440 72 411.289062 72 376 L 72 136 C 72 100.710938 100.710938 72 136 72 L 376 72 C 411.289062 72 440 100.710938 440 136 L 440 328 C 440 332.414062 436.425781 336 432.007812 336 L 216.007812 336.167969 L 216 336.167969 C 212.632812 336.167969 209.625 334.054688 208.480469 330.894531 C 207.328125 327.726562 208.296875 324.183594 210.878906 322.023438 L 364.105469 194.296875 C 377.183594 183.390625 377.785156 168.296875 373.984375 157.792969 C 370.183594 147.289062 360.0625 136.070312 343.039062 136.0625 L 144 136 L 144 160 C 144 168.824219 151.175781 176 160 176 L 300.777344 176 C 304.175781 176 307.199219 178.152344 308.320312 181.351562 C 309.441406 184.550781 308.425781 188.128906 305.769531 190.246094 L 147.695312 316.566406 C 134.625 327.679688 134.105469 343.136719 138.039062 353.847656 C 141.976562 364.558594 152.382812 376 169.785156 376 L 432 376 C 435.367188 376 438.367188 378.105469 439.511719 381.265625 L 471.511719 469.265625 C 472.585938 472.207031 471.839844 475.511719 469.601562 477.703125 C 468.078125 479.199219 466.054688 480 464 480 Z M 136 88 C 109.527344 88 88 109.527344 88 136 L 88 376 C 88 402.472656 109.527344 424 136 424 L 360 424 C 360.984375 424 361.953125 424.175781 362.871094 424.527344 L 450.472656 458.222656 L 426.398438 392 L 169.785156 392 C 148.664062 392 130.304688 379.191406 123.023438 359.367188 C 115.734375 339.542969 121.433594 317.894531 137.527344 304.214844 L 277.945312 192 L 160 192 C 142.351562 192 128 177.648438 128 160 L 128 128 C 128 125.878906 128.839844 123.839844 130.34375 122.34375 C 131.847656 120.847656 133.878906 120 136 120 L 343.039062 120.070312 C 363.878906 120.078125 381.9375 132.753906 389.03125 152.351562 C 396.128906 171.953125 390.359375 193.238281 374.351562 206.585938 L 238.113281 320.144531 L 424 320.007812 L 424 136 C 424 109.527344 402.472656 88 376 88 Z M 136 88 "/>
</g>
</svg>
